<?xml version="1.0" encoding="UTF-8"?>
<!--Generator: Apple Native CoreSVG 175.5-->
<!DOCTYPE svg
PUBLIC "-//W3C//DTD SVG 1.1//EN"
       "http://www.w3.org/Graphics/SVG/1.1/DTD/svg11.dtd">
<svg version="1.1" xmlns="http://www.w3.org/2000/svg" xmlns:xlink="http://www.w3.org/1999/xlink" width="3300" height="2200">
 <!--glyph: "uni1001E7.medium", point size: 100.0, font version: "18.0d12e2", template writer version: "101"-->
 <style>.monochrome-0 {fill:#000000}

.multicolor-0:white {fill:#FFFFFF}

.SFSymbolsPreviewFFFFFF {fill:#FFFFFF;opacity:1.0}
</style>
 <g id="Notes">
  <rect height="2200" id="artboard" style="fill:white;opacity:1" width="3300" x="0" y="0"/>
  <line style="fill:none;stroke:black;opacity:1;stroke-width:0.5;" x1="263" x2="3036" y1="292" y2="292"/>
  <text style="stroke:none;fill:black;font-family:sans-serif;font-size:13;font-weight:bold;" transform="matrix(1 0 0 1 263 322)">Weight/Scale Variations</text>
  <text style="stroke:none;fill:black;font-family:sans-serif;font-size:13;text-anchor:middle;" transform="matrix(1 0 0 1 559.711 322)">Ultralight</text>
  <text style="stroke:none;fill:black;font-family:sans-serif;font-size:13;text-anchor:middle;" transform="matrix(1 0 0 1 856.422 322)">Thin</text>
  <text style="stroke:none;fill:black;font-family:sans-serif;font-size:13;text-anchor:middle;" transform="matrix(1 0 0 1 1153.13 322)">Light</text>
  <text style="stroke:none;fill:black;font-family:sans-serif;font-size:13;text-anchor:middle;" transform="matrix(1 0 0 1 1449.84 322)">Regular</text>
  <text style="stroke:none;fill:black;font-family:sans-serif;font-size:13;text-anchor:middle;" transform="matrix(1 0 0 1 1746.56 322)">Medium</text>
  <text style="stroke:none;fill:black;font-family:sans-serif;font-size:13;text-anchor:middle;" transform="matrix(1 0 0 1 2043.27 322)">Semibold</text>
  <text style="stroke:none;fill:black;font-family:sans-serif;font-size:13;text-anchor:middle;" transform="matrix(1 0 0 1 2339.98 322)">Bold</text>
  <text style="stroke:none;fill:black;font-family:sans-serif;font-size:13;text-anchor:middle;" transform="matrix(1 0 0 1 2636.69 322)">Heavy</text>
  <text style="stroke:none;fill:black;font-family:sans-serif;font-size:13;text-anchor:middle;" transform="matrix(1 0 0 1 2933.4 322)">Black</text>
  <line style="fill:none;stroke:black;opacity:1;stroke-width:0.5;" x1="263" x2="3036" y1="1903" y2="1903"/>
  <g transform="matrix(1 0 0 1 263 1933)">
   <path d="M9.24805 0.830078C13.5547 0.830078 17.1387-2.74414 17.1387-7.05078C17.1387-11.3574 13.5449-14.9316 9.23828-14.9316C4.94141-14.9316 1.36719-11.3574 1.36719-7.05078C1.36719-2.74414 4.95117 0.830078 9.24805 0.830078ZM9.24805-0.654297C5.70312-0.654297 2.87109-3.49609 2.87109-7.05078C2.87109-10.6055 5.69336-13.4473 9.23828-13.4473C12.793-13.4473 15.6445-10.6055 15.6445-7.05078C15.6445-3.49609 12.8027-0.654297 9.24805-0.654297ZM5.6543-7.05078C5.6543-6.62109 5.95703-6.32812 6.40625-6.32812L8.50586-6.32812L8.50586-4.20898C8.50586-3.76953 8.79883-3.4668 9.22852-3.4668C9.67773-3.4668 9.9707-3.76953 9.9707-4.20898L9.9707-6.32812L12.0898-6.32812C12.5293-6.32812 12.832-6.62109 12.832-7.05078C12.832-7.49023 12.5293-7.79297 12.0898-7.79297L9.9707-7.79297L9.9707-9.90234C9.9707-10.3516 9.67773-10.6543 9.22852-10.6543C8.79883-10.6543 8.50586-10.3516 8.50586-9.90234L8.50586-7.79297L6.40625-7.79297C5.95703-7.79297 5.6543-7.49023 5.6543-7.05078Z"/>
  </g>
  <g transform="matrix(1 0 0 1 281.867 1933)">
   <path d="M11.709 2.91016C17.1582 2.91016 21.6699-1.61133 21.6699-7.05078C21.6699-12.5 17.1484-17.0117 11.6992-17.0117C6.25977-17.0117 1.74805-12.5 1.74805-7.05078C1.74805-1.61133 6.26953 2.91016 11.709 2.91016ZM11.709 1.25C7.09961 1.25 3.41797-2.44141 3.41797-7.05078C3.41797-11.6602 7.08984-15.3516 11.6992-15.3516C16.3086-15.3516 20.0098-11.6602 20.0098-7.05078C20.0098-2.44141 16.3184 1.25 11.709 1.25ZM7.17773-7.05078C7.17773-6.57227 7.50977-6.25 8.00781-6.25L10.8789-6.25L10.8789-3.36914C10.8789-2.88086 11.2109-2.53906 11.6895-2.53906C12.1777-2.53906 12.5195-2.87109 12.5195-3.36914L12.5195-6.25L15.4004-6.25C15.8887-6.25 16.2305-6.57227 16.2305-7.05078C16.2305-7.53906 15.8887-7.88086 15.4004-7.88086L12.5195-7.88086L12.5195-10.752C12.5195-11.25 12.1777-11.5918 11.6895-11.5918C11.2109-11.5918 10.8789-11.25 10.8789-10.752L10.8789-7.88086L8.00781-7.88086C7.50977-7.88086 7.17773-7.53906 7.17773-7.05078Z"/>
  </g>
  <g transform="matrix(1 0 0 1 305.646 1933)">
   <path d="M14.9707 5.66406C21.9336 5.66406 27.6953-0.0976562 27.6953-7.05078C27.6953-14.0137 21.9238-19.7754 14.9609-19.7754C8.00781-19.7754 2.25586-14.0137 2.25586-7.05078C2.25586-0.0976562 8.01758 5.66406 14.9707 5.66406ZM14.9707 3.84766C8.93555 3.84766 4.08203-1.01562 4.08203-7.05078C4.08203-13.0957 8.92578-17.9492 14.9609-17.9492C21.0059-17.9492 25.8691-13.0957 25.8691-7.05078C25.8691-1.01562 21.0156 3.84766 14.9707 3.84766ZM9.19922-7.05078C9.19922-6.5332 9.57031-6.17188 10.1172-6.17188L14.0625-6.17188L14.0625-2.2168C14.0625-1.67969 14.4336-1.29883 14.9512-1.29883C15.4883-1.29883 15.8594-1.66992 15.8594-2.2168L15.8594-6.17188L19.8145-6.17188C20.3516-6.17188 20.7324-6.5332 20.7324-7.05078C20.7324-7.59766 20.3613-7.96875 19.8145-7.96875L15.8594-7.96875L15.8594-11.9141C15.8594-12.4609 15.4883-12.8418 14.9512-12.8418C14.4336-12.8418 14.0625-12.4609 14.0625-11.9141L14.0625-7.96875L10.1172-7.96875C9.57031-7.96875 9.19922-7.59766 9.19922-7.05078Z"/>
  </g>
  <text style="stroke:none;fill:black;font-family:sans-serif;font-size:13;font-weight:bold;" transform="matrix(1 0 0 1 263 1953)">Design Variations</text>
  <text style="stroke:none;fill:black;font-family:sans-serif;font-size:13;" transform="matrix(1 0 0 1 263 1971)">Symbols are supported in up to nine weights and three scales.</text>
  <text style="stroke:none;fill:black;font-family:sans-serif;font-size:13;" transform="matrix(1 0 0 1 263 1989)">For optimal layout with text and other symbols, vertically align</text>
  <text style="stroke:none;fill:black;font-family:sans-serif;font-size:13;" transform="matrix(1 0 0 1 263 2007)">symbols with the adjacent text.</text>
  <line style="fill:none;stroke:#00AEEF;stroke-width:0.5;opacity:1.0;" x1="776" x2="776" y1="1919" y2="1933"/>
  <g transform="matrix(1 0 0 1 776 1933)">
   <path d="M3.31055 0.15625C3.82812 0.15625 4.08203-0.0390625 4.26758-0.585938L5.52734-4.0332L11.2891-4.0332L12.5488-0.585938C12.7344-0.0390625 12.9883 0.15625 13.4961 0.15625C14.0137 0.15625 14.3457-0.15625 14.3457-0.644531C14.3457-0.810547 14.3164-0.966797 14.2383-1.17188L9.6582-13.3691C9.43359-13.9648 9.0332-14.2676 8.4082-14.2676C7.80273-14.2676 7.39258-13.9746 7.17773-13.3789L2.59766-1.16211C2.51953-0.957031 2.49023-0.800781 2.49023-0.634766C2.49023-0.146484 2.80273 0.15625 3.31055 0.15625ZM6.00586-5.51758L8.37891-12.0898L8.42773-12.0898L10.8008-5.51758Z"/>
  </g>
  <line style="fill:none;stroke:#00AEEF;stroke-width:0.5;opacity:1.0;" x1="793.197" x2="793.197" y1="1919" y2="1933"/>
  <text style="stroke:none;fill:black;font-family:sans-serif;font-size:13;font-weight:bold;" transform="matrix(1 0 0 1 776 1953)">Margins</text>
  <text style="stroke:none;fill:black;font-family:sans-serif;font-size:13;" transform="matrix(1 0 0 1 776 1971)">Leading and trailing margins on the left and right side of each symbol</text>
  <text style="stroke:none;fill:black;font-family:sans-serif;font-size:13;" transform="matrix(1 0 0 1 776 1989)">can be adjusted by modifying the x-location of the margin guidelines.</text>
  <text style="stroke:none;fill:black;font-family:sans-serif;font-size:13;" transform="matrix(1 0 0 1 776 2007)">Modifications are automatically applied proportionally to all</text>
  <text style="stroke:none;fill:black;font-family:sans-serif;font-size:13;" transform="matrix(1 0 0 1 776 2025)">scales and weights.</text>
  <g transform="matrix(1 0 0 1 1289 1933)">
   <path d="M2.8418 1.86523L4.54102 3.57422C5.40039 4.44336 6.38672 4.38477 7.31445 3.35938L18.0078-8.42773L17.041-9.4043L6.42578 2.27539C6.07422 2.67578 5.74219 2.77344 5.27344 2.30469L4.10156 1.14258C3.63281 0.683594 3.74023 0.341797 4.14062-0.0195312L15.6152-10.8203L14.6387-11.7871L3.04688-0.898438C2.06055 0.0195312 1.98242 0.996094 2.8418 1.86523ZM9.25781-16.3281C8.83789-15.918 8.80859-15.3418 9.04297-14.9512C9.27734-14.5898 9.73633-14.3555 10.3809-14.5215C11.8457-14.8633 13.3691-14.9219 14.7949-13.9844L14.209-12.5293C13.8672-11.6992 14.043-11.1133 14.5801-10.5664L16.875-8.25195C17.3633-7.76367 17.7734-7.74414 18.3398-7.8418L19.4043-8.03711L20.0684-7.36328L20.0293-6.80664C19.9902-6.30859 20.1172-5.92773 20.6055-5.44922L21.3672-4.70703C21.8457-4.22852 22.4609-4.19922 22.9297-4.66797L25.8398-7.58789C26.3086-8.05664 26.2891-8.65234 25.8105-9.13086L25.0391-9.89258C24.5605-10.3711 24.1895-10.5273 23.7109-10.4883L23.1348-10.4395L22.4902-11.0742L22.7344-12.1973C22.8613-12.7637 22.7051-13.2031 22.1191-13.7891L19.9219-15.9766C16.582-19.2969 12.1484-19.2188 9.25781-16.3281ZM10.752-15.957C13.1836-17.7344 16.4746-17.4316 18.7012-15.2051L21.1328-12.793C21.3672-12.5586 21.4062-12.373 21.3379-12.0312L21.0156-10.5469L22.5195-9.0625L23.5059-9.12109C23.7598-9.13086 23.8379-9.11133 24.0332-8.91602L24.6094-8.33984L22.168-5.89844L21.5918-6.47461C21.3965-6.66992 21.3672-6.74805 21.377-7.01172L21.4453-7.98828L19.9512-9.47266L18.4277-9.21875C18.1055-9.15039 17.959-9.17969 17.7148-9.41406L15.7129-11.416C15.459-11.6504 15.4297-11.8164 15.5859-12.1875L16.4648-14.2773C14.9023-15.7324 12.8711-16.3574 10.8398-15.7617C10.6836-15.7227 10.625-15.8496 10.752-15.957Z"/>
  </g>
  <text style="stroke:none;fill:black;font-family:sans-serif;font-size:13;font-weight:bold;" transform="matrix(1 0 0 1 1289 1953)">Exporting</text>
  <text style="stroke:none;fill:black;font-family:sans-serif;font-size:13;" transform="matrix(1 0 0 1 1289 1971)">Symbols should be outlined when exporting to ensure the</text>
  <text style="stroke:none;fill:black;font-family:sans-serif;font-size:13;" transform="matrix(1 0 0 1 1289 1989)">design is preserved when submitting to Xcode.</text>
  <text id="template-version" style="stroke:none;fill:black;font-family:sans-serif;font-size:13;text-anchor:end;" transform="matrix(1 0 0 1 3036 1933)">Template v.4.0</text>
  <text style="stroke:none;fill:black;font-family:sans-serif;font-size:13;text-anchor:end;" transform="matrix(1 0 0 1 3036 1951)">Requires Xcode 14 or greater</text>
  <text id="descriptive-name" style="stroke:none;fill:black;font-family:sans-serif;font-size:13;text-anchor:end;" transform="matrix(1 0 0 1 3036 1969)">Generated from tornado</text>
  <text style="stroke:none;fill:black;font-family:sans-serif;font-size:13;text-anchor:end;" transform="matrix(1 0 0 1 3036 1987)">Typeset at 100 points</text>
  <text style="stroke:none;fill:black;font-family:sans-serif;font-size:13;" transform="matrix(1 0 0 1 263 726)">Small</text>
  <text style="stroke:none;fill:black;font-family:sans-serif;font-size:13;" transform="matrix(1 0 0 1 263 1156)">Medium</text>
  <text style="stroke:none;fill:black;font-family:sans-serif;font-size:13;" transform="matrix(1 0 0 1 263 1586)">Large</text>
 </g>
 <g id="Guides">
  <g id="H-reference" style="fill:#27AAE1;stroke:none;" transform="matrix(1 0 0 1 339 696)">
   <path d="M0.993654 0L3.63775 0L29.3281-67.1323L30.0303-67.1323L30.0303-70.459L28.1226-70.459ZM11.6885-24.4799L46.9815-24.4799L46.2315-26.7285L12.4385-26.7285ZM55.1196 0L57.7637 0L30.6382-70.459L29.4326-70.459L29.4326-67.1323Z"/>
  </g>
  <line id="Baseline-S" style="fill:none;stroke:#27AAE1;opacity:1;stroke-width:0.5;" x1="263" x2="3036" y1="696" y2="696"/>
  <line id="Capline-S" style="fill:none;stroke:#27AAE1;opacity:1;stroke-width:0.5;" x1="263" x2="3036" y1="625.541" y2="625.541"/>
  <g id="H-reference" style="fill:#27AAE1;stroke:none;" transform="matrix(1 0 0 1 339 1126)">
   <path d="M0.993654 0L3.63775 0L29.3281-67.1323L30.0303-67.1323L30.0303-70.459L28.1226-70.459ZM11.6885-24.4799L46.9815-24.4799L46.2315-26.7285L12.4385-26.7285ZM55.1196 0L57.7637 0L30.6382-70.459L29.4326-70.459L29.4326-67.1323Z"/>
  </g>
  <line id="Baseline-M" style="fill:none;stroke:#27AAE1;opacity:1;stroke-width:0.5;" x1="263" x2="3036" y1="1126" y2="1126"/>
  <line id="Capline-M" style="fill:none;stroke:#27AAE1;opacity:1;stroke-width:0.5;" x1="263" x2="3036" y1="1055.54" y2="1055.54"/>
  <g id="H-reference" style="fill:#27AAE1;stroke:none;" transform="matrix(1 0 0 1 339 1556)">
   <path d="M0.993654 0L3.63775 0L29.3281-67.1323L30.0303-67.1323L30.0303-70.459L28.1226-70.459ZM11.6885-24.4799L46.9815-24.4799L46.2315-26.7285L12.4385-26.7285ZM55.1196 0L57.7637 0L30.6382-70.459L29.4326-70.459L29.4326-67.1323Z"/>
  </g>
  <line id="Baseline-L" style="fill:none;stroke:#27AAE1;opacity:1;stroke-width:0.5;" x1="263" x2="3036" y1="1556" y2="1556"/>
  <line id="Capline-L" style="fill:none;stroke:#27AAE1;opacity:1;stroke-width:0.5;" x1="263" x2="3036" y1="1485.54" y2="1485.54"/>
  <line id="left-margin-Ultralight-S" style="fill:none;stroke:#00AEEF;stroke-width:0.5;opacity:1.0;" x1="518.584" x2="518.584" y1="600.785" y2="720.121"/>
  <line id="right-margin-Ultralight-S" style="fill:none;stroke:#00AEEF;stroke-width:0.5;opacity:1.0;" x1="600.838" x2="600.838" y1="600.785" y2="720.121"/>
  <line id="left-margin-Regular-S" style="fill:none;stroke:#00AEEF;stroke-width:0.5;opacity:1.0;" x1="1406.27" x2="1406.27" y1="600.785" y2="720.121"/>
  <line id="right-margin-Regular-S" style="fill:none;stroke:#00AEEF;stroke-width:0.5;opacity:1.0;" x1="1493.42" x2="1493.42" y1="600.785" y2="720.121"/>
  <line id="left-margin-Black-S" style="fill:none;stroke:#00AEEF;stroke-width:0.5;opacity:1.0;" x1="2885.04" x2="2885.04" y1="600.785" y2="720.121"/>
  <line id="right-margin-Black-S" style="fill:none;stroke:#00AEEF;stroke-width:0.5;opacity:1.0;" x1="2981.76" x2="2981.76" y1="600.785" y2="720.121"/>
 </g>
 <g id="Symbols">
  <g id="Black-S" transform="matrix(1 0 0 1 2885.04 696)">
   <path class="monochrome-0 multicolor-0:white SFSymbolsPreviewFFFFFF" d="M47.8516-45.2637C73.8281-45.2637 89.8926-51.416 89.8926-61.2793C89.8926-70.0684 79.0527-75.2441 60.0586-75.2441C48.1934-75.2441 37.9883-73.7793 29.6387-70.8008C26.5137-69.6777 25.8301-66.5039 26.709-64.3066C27.7344-61.7676 30.2734-60.6934 33.7891-61.7676C40.3809-63.7695 48.2422-65.7227 59.5703-65.7227C69.7754-65.7227 78.9551-64.0625 78.9551-61.3281C78.9551-57.666 62.4023-55.0293 47.4121-55.0293C27.4414-55.0293 17.7734-58.7402 17.7734-65.625C17.7734-70.9961 22.9492-74.6582 32.373-77.1484C35.6934-78.0273 36.8164-80.7129 35.9863-83.3984C35.1562-86.1328 32.6172-87.207 29.0527-86.377C14.1602-82.9102 6.83594-74.2188 6.83594-65.4297C6.83594-52.6855 21.3379-45.2637 47.8516-45.2637ZM48.9746-30.4199C62.207-30.4199 74.5605-32.4219 83.0078-35.498C85.8398-36.5234 86.7676-39.2578 85.6934-41.6016C84.668-43.8477 82.1289-44.4824 79.2969-43.5547C71.5332-41.0156 60.2539-39.209 48.9746-39.209C40.0879-39.209 30.1758-40.2832 22.0703-42.6758C19.2383-43.5059 16.8457-42.5781 16.1621-40.1367C15.4297-37.5488 16.9922-35.1562 19.9219-34.2773C28.8086-31.5918 39.5508-30.4199 48.9746-30.4199ZM52.2461-15.7715C63.1348-15.8691 72.998-17.3828 82.7148-20.166C85.5957-20.9961 86.9141-23.6328 85.9375-26.1719C85.1074-28.3691 83.0566-29.4434 80.127-28.6133C70.8984-25.9766 61.8652-24.5605 51.7578-24.5605C47.7051-24.5605 43.2129-24.8047 40.0879-25.2441C37.1094-25.6836 35.1562-24.1211 34.7168-21.9238C34.2285-19.4336 35.6445-16.8945 38.7695-16.5039C42.2363-16.0645 46.582-15.7227 52.2461-15.7715ZM47.6562-1.80664C55.2734-0.976562 65.9668-1.51367 72.9492-3.17383C75.7812-3.85742 77.0508-6.29883 76.416-8.74023C75.7812-11.2793 73.3398-12.3535 70.5078-11.7676C64.4531-10.498 56.1035-10.0586 48.8281-10.498C45.752-10.6934 43.7988-9.08203 43.5059-6.73828C43.2617-4.6875 44.4336-2.14844 47.6562-1.80664ZM44.9707 12.4512C47.9004 12.7441 50.8301 12.7441 54.1504 12.4023C56.6895 12.1582 58.3984 10.4492 58.2031 7.8125C58.0078 5.32227 56.0059 3.61328 53.1738 3.95508C50.5859 4.24805 48.0469 4.24805 45.9473 4.00391C43.1152 3.66211 41.1133 5.37109 40.918 7.86133C40.7227 10.498 42.4316 12.207 44.9707 12.4512Z"/>
  </g>
  <g id="Regular-S" transform="matrix(1 0 0 1 1406.27 696)">
   <path class="monochrome-0 multicolor-0:white SFSymbolsPreviewFFFFFF" d="M43.0664-43.4082C67.1875-43.4082 80.3223-49.6094 80.3223-57.8613C80.3223-65.5762 69.4336-70.2148 53.9551-70.2148C42.1875-70.2148 33.252-67.9688 26.5137-64.7461C24.4629-63.7695 24.0234-61.7188 24.7559-60.2539C25.6348-58.5938 27.7832-58.1055 29.4922-58.8379C35.5957-61.377 43.2129-63.8672 53.5156-63.8672C66.3086-63.8672 73.4863-60.8887 73.4863-57.9102C73.4863-54.3457 62.4512-50 42.7246-50C23.6816-50 13.6719-53.6621 13.6719-60.6934C13.6719-64.6973 17.2363-68.9941 28.418-72.6074C30.5664-73.3398 31.4453-75.0488 30.8594-76.8555C30.2246-78.5645 28.7109-79.3457 26.2207-78.5645C12.9883-74.6094 6.83594-67.7734 6.83594-60.498C6.83594-49.3164 19.2383-43.4082 43.0664-43.4082ZM44.1895-30.6152C56.2012-30.6152 67.2363-32.6172 75.0977-35.791C76.7578-36.4258 77.5391-38.1836 76.7578-39.6973C75.9277-41.1621 74.3652-41.4062 72.4609-40.7227C65.5273-38.1348 55.3223-36.2305 44.1895-36.2305C36.084-36.2305 26.9043-37.207 19.3359-39.4043C17.3828-39.9902 15.8203-39.3555 15.332-37.7441C14.8438-36.1328 15.6738-34.5703 17.6758-33.9844C25.7324-31.7871 35.5957-30.6152 44.1895-30.6152ZM46.6797-17.9688C56.5918-18.0664 66.0645-19.3848 74.8535-22.4121C77.1973-23.1934 77.4902-25.0488 76.9531-26.3672C76.3184-27.8809 74.8047-28.3203 72.5586-27.6367C63.8672-24.8535 55.5664-23.584 46.6797-23.584C42.9199-23.584 38.916-23.877 35.8398-24.3164C33.7402-24.5605 32.4707-23.7305 32.1777-22.168C31.8848-20.6055 32.7148-19.1406 34.9609-18.75C37.8418-18.2129 41.8945-17.9199 46.6797-17.9688ZM43.2617-6.05469C50.293-5.27344 58.5938-5.46875 65.8691-7.37305C67.8711-7.91016 68.5547-9.61914 68.1152-11.1328C67.5781-12.7441 66.0645-13.3301 64.0137-12.8418C57.8125-11.2305 50.8789-10.7422 44.1895-11.5723C42.1387-11.7676 40.6738-10.791 40.4785-9.22852C40.2832-7.61719 41.1133-6.29883 43.2617-6.05469ZM40.625 6.25C43.1641 6.54297 45.8008 6.54297 48.3398 6.25C50.3418 6.00586 51.2695 4.73633 51.123 3.125C50.9766 1.70898 49.8535 0.683594 47.7539 0.927734C45.6543 1.17188 43.2129 1.17188 41.1133 0.927734C39.1113 0.683594 37.9395 1.75781 37.7441 3.125C37.5488 4.58984 38.5254 6.00586 40.625 6.25Z"/>
  </g>
  <g id="Ultralight-S" transform="matrix(1 0 0 1 518.584 696)">
   <path class="monochrome-0 multicolor-0:white SFSymbolsPreviewFFFFFF" d="M40.251-43.6353C60.5123-43.6353 75.418-48.5195 75.418-55.8633C75.418-61.9888 65.6646-66.0826 51.0943-66.0826C40.916-66.0826 31.9805-63.9273 24.9243-60.7954C24.0996-60.4092 23.7964-59.7207 24.1201-59.1187C24.4087-58.5483 25.1494-58.4687 25.9502-58.8379C32.0537-61.5132 40.2158-64.0034 51.0635-64.0034C64.4468-64.0034 73.3047-60.707 73.3047-55.8667C73.3047-50.3042 58.9092-45.7315 40.2271-45.7315C20.3213-45.7315 8.94926-50.0747 8.94926-58.1504C8.94926-63.4712 14.4663-68.8125 25.0122-72.0171C25.6167-72.1592 25.9507-72.6875 25.8189-73.2681C25.5928-73.9781 24.9419-74.0328 24.3589-73.8872C13.2607-70.5679 6.83594-64.4585 6.83594-58.1367C6.83594-48.9077 18.5571-43.6353 40.251-43.6353ZM41.5103-31.9775C53.2949-31.9775 64.0576-33.707 71.6011-37.1533C72.3077-37.4248 72.6348-38.002 72.3531-38.562C72.0679-39.1641 71.459-39.2266 70.69-38.9063C62.939-35.5918 52.4614-34.0054 41.5103-34.0054C32.7237-34.0054 22.4995-35.2544 15.9756-37.1338C15.2486-37.3565 14.6397-37.1758 14.4692-36.5635C14.2534-35.9512 14.584-35.4331 15.3145-35.2558C22.4629-33.0586 32.8711-31.9775 41.5103-31.9775ZM44.4546-20.3301C54.9116-20.3369 64.2027-22.2002 71.9473-24.7734C72.6109-25.0098 72.9038-25.5937 72.6846-26.1855C72.4585-26.7456 71.8985-26.9126 71.1055-26.6831C63.6401-24.0361 54.2495-22.3125 44.4546-22.3125C40.2407-22.3125 36.0098-22.5147 32.5703-23.0449C31.8784-23.1528 31.3355-22.9131 31.2695-22.3496C31.1582-21.7861 31.4434-21.2295 32.2818-21.1113C35.3897-20.665 39.8965-20.3266 44.4546-20.3301ZM40.7642-9.27878C47.4322-8.3613 56.0962-8.4658 62.8721-10.7334C63.5118-10.9072 63.8321-11.5264 63.6197-12.0864C63.4004-12.6987 62.7949-12.8306 62.0611-12.6147C55.6782-10.8218 47.6548-10.1973 41.1016-11.209C40.3677-11.3135 39.8565-11.0181 39.752-10.5C39.6475-9.88768 39.9326-9.34128 40.7642-9.27878ZM38.1729 2.16312C40.0762 2.54691 43.8028 2.41068 46.0239 2.0723C46.709 1.96439 47.0464 1.46682 46.9453 0.89992C46.8443 0.34669 46.357 0.00244677 45.4834 0.155768C43.3384 0.536138 40.7154 0.581548 38.4795 0.246587C37.749 0.138676 37.2583 0.395519 37.1538 0.94533C37.0493 1.54739 37.3447 2.0098 38.1729 2.16312Z"/>
  </g>
 </g>
</svg>
